<svg width="1512" height="1371" viewBox="0 0 1512 1371" fill="none" xmlns="http://www.w3.org/2000/svg">
<path d="M-6.19323 1002.96C9.95578 1020.85 17.8866 1045.64 24.2546 1071.9C30.3775 1097.17 35.9822 1123.37 49.1053 1143.51C76.16 1185.04 123.604 1194.97 167.194 1193.23C215.912 1191.27 266.721 1176.92 313.672 1189.02C336.7 1194.95 358.357 1208.68 370.29 1234C380.174 1254.98 379.964 1280.15 373.892 1305.49C370.439 1319.9 365.621 1333.85 360.653 1347.76L365.258 1350.09C366.667 1346.15 368.076 1342.21 369.419 1338.27C377.275 1315.36 384.385 1291.03 383.618 1267.11C382.739 1239.94 371.014 1217.03 354.655 1202.58C334.699 1184.94 308.983 1179.08 283.616 1177.89C259.173 1176.75 234.285 1179.98 209.53 1182.86C162.276 1188.36 110.823 1192.16 72.4339 1160.29C63.4519 1152.84 55.5729 1143.51 49.4813 1132.3C43.4565 1121.23 39.323 1108.61 35.8608 1095.63C29.0806 1070.24 24.6472 1043.05 13.3348 1020.72C1.63907 997.623 -16.8372 980.702 -38.2525 973.378C-38.2805 973.364 -38.3135 973.363 -38.3507 973.344L-40.9317 979.747C-27.9456 984.107 -16.0879 992.017 -6.19323 1002.96Z" fill="url(#paint0_linear_182_117)"/>
<path d="M11.5121 1095.34C46.9208 1140.46 104.523 1143.98 146.613 1138.98C168.276 1136.41 190.332 1131.52 211.666 1126.79C239.287 1120.66 267.844 1114.33 295.74 1113C322.964 1111.69 389.284 1115.26 416.961 1176.28C432.879 1211.39 433.541 1261.61 418.926 1325.55C417.555 1331.56 416.061 1337.6 414.548 1343.63L415.497 1344.11C417.036 1337.99 418.547 1331.85 419.944 1325.74C434.65 1261.44 433.966 1210.89 417.905 1175.5C389.983 1113.94 323.249 1110.34 295.854 1111.66C267.888 1113 239.289 1119.33 211.63 1125.46C190.31 1130.19 168.277 1135.07 146.661 1137.63C104.771 1142.61 47.4646 1139.14 12.3069 1094.31C-0.216484 1078.35 -9.26052 1057.88 -18.0176 1038.08C-21.6702 1029.83 -25.3675 1021.49 -29.3367 1013.41L-29.9324 1014.89C-26.089 1022.75 -22.5073 1030.85 -18.9611 1038.86C-10.1872 1058.73 -1.10682 1079.26 11.5121 1095.34Z" fill="url(#paint1_linear_182_117)"/>
<rect x="243.812" y="446" width="973.068" height="676" fill="#EFEFFF" fill-opacity="0.65"/>
<path d="M192.131 416.111C193.143 416.111 193.964 415.19 193.964 414.055C193.964 412.92 193.143 412 192.131 412C191.118 412 190.298 412.92 190.298 414.055C190.298 415.19 191.118 416.111 192.131 416.111Z" fill="black" fill-opacity="0.21"/>
<path d="M218.666 416.111C219.679 416.111 220.499 415.19 220.499 414.055C220.499 412.92 219.679 412 218.666 412C217.654 412 216.833 412.92 216.833 414.055C216.833 415.19 217.654 416.111 218.666 416.111Z" fill="black" fill-opacity="0.21"/>
<path d="M245.202 416.111C246.214 416.111 247.035 415.19 247.035 414.055C247.035 412.92 246.214 412 245.202 412C244.189 412 243.369 412.92 243.369 414.055C243.369 415.19 244.189 416.111 245.202 416.111Z" fill="black" fill-opacity="0.21"/>
<path d="M271.737 416.111C272.75 416.111 273.57 415.19 273.57 414.055C273.57 412.92 272.75 412 271.737 412C270.725 412 269.904 412.92 269.904 414.055C269.904 415.19 270.725 416.111 271.737 416.111Z" fill="black" fill-opacity="0.21"/>
<path d="M298.274 416.111C299.286 416.111 300.107 415.19 300.107 414.055C300.107 412.92 299.286 412 298.274 412C297.261 412 296.44 412.92 296.44 414.055C296.44 415.19 297.261 416.111 298.274 416.111Z" fill="black" fill-opacity="0.21"/>
<path d="M324.808 416.111C325.821 416.111 326.642 415.19 326.642 414.055C326.642 412.92 325.821 412 324.808 412C323.796 412 322.975 412.92 322.975 414.055C322.975 415.19 323.796 416.111 324.808 416.111Z" fill="black" fill-opacity="0.21"/>
<path d="M353.178 414.055C353.178 415.184 352.351 416.111 351.345 416.111C350.338 416.111 349.511 415.184 349.511 414.055C349.511 412.927 350.338 412 351.345 412C352.366 412 353.178 412.927 353.178 414.055Z" fill="black" fill-opacity="0.21"/>
<path d="M377.88 416.111C378.893 416.111 379.713 415.19 379.713 414.055C379.713 412.92 378.893 412 377.88 412C376.868 412 376.047 412.92 376.047 414.055C376.047 415.19 376.868 416.111 377.88 416.111Z" fill="black" fill-opacity="0.21"/>
<path d="M404.416 416.111C405.428 416.111 406.249 415.19 406.249 414.055C406.249 412.92 405.428 412 404.416 412C403.404 412 402.583 412.92 402.583 414.055C402.583 415.19 403.404 416.111 404.416 416.111Z" fill="black" fill-opacity="0.21"/>
<path d="M192.131 436.108C193.143 436.108 193.964 435.188 193.964 434.052C193.964 432.917 193.143 431.997 192.131 431.997C191.118 431.997 190.298 432.917 190.298 434.052C190.298 435.188 191.118 436.108 192.131 436.108Z" fill="black" fill-opacity="0.21"/>
<path d="M218.666 436.108C219.679 436.108 220.499 435.188 220.499 434.052C220.499 432.917 219.679 431.997 218.666 431.997C217.654 431.997 216.833 432.917 216.833 434.052C216.833 435.188 217.654 436.108 218.666 436.108Z" fill="black" fill-opacity="0.21"/>
<path d="M245.202 436.108C246.214 436.108 247.035 435.188 247.035 434.052C247.035 432.917 246.214 431.997 245.202 431.997C244.189 431.997 243.369 432.917 243.369 434.052C243.369 435.188 244.189 436.108 245.202 436.108Z" fill="black" fill-opacity="0.21"/>
<path d="M271.737 436.108C272.75 436.108 273.57 435.188 273.57 434.052C273.57 432.917 272.75 431.997 271.737 431.997C270.725 431.997 269.904 432.917 269.904 434.052C269.904 435.188 270.725 436.108 271.737 436.108Z" fill="black" fill-opacity="0.21"/>
<path d="M298.274 436.108C299.286 436.108 300.107 435.188 300.107 434.052C300.107 432.917 299.286 431.997 298.274 431.997C297.261 431.997 296.44 432.917 296.44 434.052C296.44 435.188 297.261 436.108 298.274 436.108Z" fill="black" fill-opacity="0.21"/>
<path d="M324.808 436.108C325.821 436.108 326.642 435.188 326.642 434.052C326.642 432.917 325.821 431.997 324.808 431.997C323.796 431.997 322.975 432.917 322.975 434.052C322.975 435.188 323.796 436.108 324.808 436.108Z" fill="black" fill-opacity="0.21"/>
<path d="M353.178 434.052C353.178 435.181 352.351 436.108 351.345 436.108C350.338 436.108 349.511 435.181 349.511 434.052C349.511 432.924 350.338 431.997 351.345 431.997C352.366 431.997 353.178 432.924 353.178 434.052Z" fill="black" fill-opacity="0.21"/>
<path d="M377.88 436.108C378.893 436.108 379.713 435.188 379.713 434.052C379.713 432.917 378.893 431.997 377.88 431.997C376.868 431.997 376.047 432.917 376.047 434.052C376.047 435.188 376.868 436.108 377.88 436.108Z" fill="black" fill-opacity="0.21"/>
<path d="M404.416 436.108C405.428 436.108 406.249 435.188 406.249 434.052C406.249 432.917 405.428 431.997 404.416 431.997C403.404 431.997 402.583 432.917 402.583 434.052C402.583 435.188 403.404 436.108 404.416 436.108Z" fill="black" fill-opacity="0.21"/>
<path d="M192.131 456.105C193.143 456.105 193.964 455.185 193.964 454.05C193.964 452.915 193.143 451.995 192.131 451.995C191.118 451.995 190.298 452.915 190.298 454.05C190.298 455.185 191.118 456.105 192.131 456.105Z" fill="black" fill-opacity="0.21"/>
<path d="M218.666 456.105C219.679 456.105 220.499 455.185 220.499 454.05C220.499 452.915 219.679 451.995 218.666 451.995C217.654 451.995 216.833 452.915 216.833 454.05C216.833 455.185 217.654 456.105 218.666 456.105Z" fill="black" fill-opacity="0.21"/>
<path d="M245.202 456.105C246.214 456.105 247.035 455.185 247.035 454.05C247.035 452.915 246.214 451.995 245.202 451.995C244.189 451.995 243.369 452.915 243.369 454.05C243.369 455.185 244.189 456.105 245.202 456.105Z" fill="black" fill-opacity="0.21"/>
<path d="M271.737 456.105C272.75 456.105 273.57 455.185 273.57 454.05C273.57 452.915 272.75 451.995 271.737 451.995C270.725 451.995 269.904 452.915 269.904 454.05C269.904 455.185 270.725 456.105 271.737 456.105Z" fill="black" fill-opacity="0.21"/>
<path d="M298.274 456.105C299.286 456.105 300.107 455.185 300.107 454.05C300.107 452.915 299.286 451.995 298.274 451.995C297.261 451.995 296.44 452.915 296.44 454.05C296.44 455.185 297.261 456.105 298.274 456.105Z" fill="black" fill-opacity="0.21"/>
<path d="M324.808 456.105C325.821 456.105 326.642 455.185 326.642 454.05C326.642 452.915 325.821 451.995 324.808 451.995C323.796 451.995 322.975 452.915 322.975 454.05C322.975 455.185 323.796 456.105 324.808 456.105Z" fill="black" fill-opacity="0.21"/>
<path d="M353.178 454.05C353.178 455.179 352.351 456.105 351.345 456.105C350.338 456.105 349.511 455.179 349.511 454.05C349.511 452.921 350.338 451.995 351.345 451.995C352.366 451.995 353.178 452.921 353.178 454.05Z" fill="black" fill-opacity="0.21"/>
<path d="M377.88 456.105C378.893 456.105 379.713 455.185 379.713 454.05C379.713 452.915 378.893 451.995 377.88 451.995C376.868 451.995 376.047 452.915 376.047 454.05C376.047 455.185 376.868 456.105 377.88 456.105Z" fill="black" fill-opacity="0.21"/>
<path d="M404.416 456.105C405.428 456.105 406.249 455.185 406.249 454.05C406.249 452.915 405.428 451.995 404.416 451.995C403.404 451.995 402.583 452.915 402.583 454.05C402.583 455.185 403.404 456.105 404.416 456.105Z" fill="black" fill-opacity="0.21"/>
<path d="M192.131 476.102C193.143 476.102 193.964 475.182 193.964 474.047C193.964 472.912 193.143 471.992 192.131 471.992C191.118 471.992 190.298 472.912 190.298 474.047C190.298 475.182 191.118 476.102 192.131 476.102Z" fill="black" fill-opacity="0.21"/>
<path d="M218.666 476.102C219.679 476.102 220.499 475.182 220.499 474.047C220.499 472.912 219.679 471.992 218.666 471.992C217.654 471.992 216.833 472.912 216.833 474.047C216.833 475.182 217.654 476.102 218.666 476.102Z" fill="black" fill-opacity="0.21"/>
<path d="M245.202 476.102C246.214 476.102 247.035 475.182 247.035 474.047C247.035 472.912 246.214 471.992 245.202 471.992C244.189 471.992 243.369 472.912 243.369 474.047C243.369 475.182 244.189 476.102 245.202 476.102Z" fill="black" fill-opacity="0.21"/>
<path d="M271.737 476.102C272.75 476.102 273.57 475.182 273.57 474.047C273.57 472.912 272.75 471.992 271.737 471.992C270.725 471.992 269.904 472.912 269.904 474.047C269.904 475.182 270.725 476.102 271.737 476.102Z" fill="black" fill-opacity="0.21"/>
<path d="M298.274 476.102C299.286 476.102 300.107 475.182 300.107 474.047C300.107 472.912 299.286 471.992 298.274 471.992C297.261 471.992 296.44 472.912 296.44 474.047C296.44 475.182 297.261 476.102 298.274 476.102Z" fill="black" fill-opacity="0.21"/>
<path d="M324.808 476.102C325.821 476.102 326.642 475.182 326.642 474.047C326.642 472.912 325.821 471.992 324.808 471.992C323.796 471.992 322.975 472.912 322.975 474.047C322.975 475.182 323.796 476.102 324.808 476.102Z" fill="black" fill-opacity="0.21"/>
<path d="M353.178 474.047C353.178 475.176 352.351 476.102 351.345 476.102C350.338 476.102 349.511 475.176 349.511 474.047C349.511 472.918 350.338 471.992 351.345 471.992C352.366 471.992 353.178 472.918 353.178 474.047Z" fill="black" fill-opacity="0.21"/>
<path d="M377.88 476.102C378.893 476.102 379.713 475.182 379.713 474.047C379.713 472.912 378.893 471.992 377.88 471.992C376.868 471.992 376.047 472.912 376.047 474.047C376.047 475.182 376.868 476.102 377.88 476.102Z" fill="black" fill-opacity="0.21"/>
<path d="M404.416 476.102C405.428 476.102 406.249 475.182 406.249 474.047C406.249 472.912 405.428 471.992 404.416 471.992C403.404 471.992 402.583 472.912 402.583 474.047C402.583 475.182 403.404 476.102 404.416 476.102Z" fill="black" fill-opacity="0.21"/>
<path d="M192.131 496.1C193.143 496.1 193.964 495.18 193.964 494.045C193.964 492.909 193.143 491.989 192.131 491.989C191.118 491.989 190.298 492.909 190.298 494.045C190.298 495.18 191.118 496.1 192.131 496.1Z" fill="black" fill-opacity="0.21"/>
<path d="M218.666 496.1C219.679 496.1 220.499 495.18 220.499 494.045C220.499 492.909 219.679 491.989 218.666 491.989C217.654 491.989 216.833 492.909 216.833 494.045C216.833 495.18 217.654 496.1 218.666 496.1Z" fill="black" fill-opacity="0.21"/>
<path d="M245.202 496.1C246.214 496.1 247.035 495.18 247.035 494.045C247.035 492.909 246.214 491.989 245.202 491.989C244.189 491.989 243.369 492.909 243.369 494.045C243.369 495.18 244.189 496.1 245.202 496.1Z" fill="black" fill-opacity="0.21"/>
<path d="M271.737 496.1C272.75 496.1 273.57 495.18 273.57 494.045C273.57 492.909 272.75 491.989 271.737 491.989C270.725 491.989 269.904 492.909 269.904 494.045C269.904 495.18 270.725 496.1 271.737 496.1Z" fill="black" fill-opacity="0.21"/>
<path d="M298.274 496.1C299.286 496.1 300.107 495.18 300.107 494.045C300.107 492.909 299.286 491.989 298.274 491.989C297.261 491.989 296.44 492.909 296.44 494.045C296.44 495.18 297.261 496.1 298.274 496.1Z" fill="black" fill-opacity="0.21"/>
<path d="M324.808 496.1C325.821 496.1 326.642 495.18 326.642 494.045C326.642 492.909 325.821 491.989 324.808 491.989C323.796 491.989 322.975 492.909 322.975 494.045C322.975 495.18 323.796 496.1 324.808 496.1Z" fill="black" fill-opacity="0.21"/>
<path d="M353.178 494.045C353.178 495.173 352.351 496.1 351.345 496.1C350.338 496.1 349.511 495.173 349.511 494.045C349.511 492.916 350.338 491.989 351.345 491.989C352.366 491.989 353.178 492.916 353.178 494.045Z" fill="black" fill-opacity="0.21"/>
<path d="M377.88 496.1C378.893 496.1 379.713 495.18 379.713 494.045C379.713 492.909 378.893 491.989 377.88 491.989C376.868 491.989 376.047 492.909 376.047 494.045C376.047 495.18 376.868 496.1 377.88 496.1Z" fill="black" fill-opacity="0.21"/>
<path d="M404.416 496.1C405.428 496.1 406.249 495.18 406.249 494.045C406.249 492.909 405.428 491.989 404.416 491.989C403.404 491.989 402.583 492.909 402.583 494.045C402.583 495.18 403.404 496.1 404.416 496.1Z" fill="black" fill-opacity="0.21"/>
<path d="M1385.14 95.9151C1374.8 118.375 1374.94 147.59 1377.12 178.255C1379.22 207.779 1382.15 238.283 1375.57 262.901C1362.02 313.66 1317.75 331.236 1273.54 335.043C1224.12 339.287 1168.58 329.74 1125.52 349.713C1104.39 359.512 1087.18 377.98 1083.49 408.319C1080.43 433.459 1088.84 462.021 1103.18 490.006C1111.33 505.906 1120.7 521.115 1130.2 536.253L1126.35 539.515C1123.66 535.227 1120.96 530.939 1118.33 526.639C1103 501.662 1087.96 474.965 1080.93 447.697C1072.96 416.723 1077.23 389.139 1088.9 370.556C1103.13 347.869 1126.97 337.806 1151.98 333.088C1176.08 328.54 1202.05 328.911 1227.78 328.893C1276.88 328.865 1329.63 326.346 1357.68 285.057C1364.25 275.395 1369.09 263.751 1371.54 250.211C1373.97 236.84 1373.99 221.958 1373.23 206.757C1371.74 177.009 1367.32 145.538 1371.37 118.679C1375.56 90.8909 1388.54 69.2179 1407.6 58.0562C1407.62 58.0365 1407.65 58.0304 1407.68 58.004L1412.35 64.934C1400.77 71.6105 1391.48 82.1692 1385.14 95.9151Z" fill="url(#paint2_linear_182_117)"/>
<path d="M1383.08 201.395C1362.33 257.347 1305.8 268.989 1262.03 268.9C1239.51 268.853 1215.83 266.235 1192.93 263.692C1163.28 260.402 1132.63 256.998 1104.26 259.19C1076.58 261.32 1011.34 274.179 1003.52 347.163C999.019 389.153 1014.72 446.283 1050.19 516.966C1053.52 523.613 1056.98 530.277 1060.46 536.927L1059.67 537.599C1056.13 530.847 1052.62 524.074 1049.23 517.325C1013.55 446.24 997.769 388.731 1002.32 346.398C1010.21 272.775 1075.86 259.829 1103.71 257.682C1132.15 255.492 1162.84 258.883 1192.53 262.18C1215.42 264.716 1239.07 267.334 1261.55 267.38C1305.11 267.472 1361.35 255.918 1381.95 200.335C1389.28 180.546 1391.67 156.088 1393.98 132.437C1394.95 122.577 1395.94 112.617 1397.28 102.912L1398.35 104.512C1397.07 113.954 1396.12 123.625 1395.18 133.203C1392.87 156.934 1390.47 181.453 1383.08 201.395Z" fill="url(#paint3_linear_182_117)"/>
<defs>
<linearGradient id="paint0_linear_182_117" x1="-9.30846" y1="1007.85" x2="395.705" y2="1231.75" gradientUnits="userSpaceOnUse">
<stop stop-color="#1F1C9B"/>
<stop offset="0.966632" stop-color="#F4F8FD"/>
</linearGradient>
<linearGradient id="paint1_linear_182_117" x1="-8.72194" y1="1026.05" x2="405.869" y2="1192.57" gradientUnits="userSpaceOnUse">
<stop stop-color="#FE873F"/>
<stop offset="1" stop-color="#F4F8FD"/>
</linearGradient>
<linearGradient id="paint2_linear_182_117" x1="1389.85" y1="101.056" x2="1041.17" y2="389.643" gradientUnits="userSpaceOnUse">
<stop offset="0.0467524" stop-color="#F4F8FD"/>
<stop offset="0.473931" stop-color="#1F1C9B"/>
<stop offset="1" stop-color="#EFF1FD"/>
</linearGradient>
<linearGradient id="paint3_linear_182_117" x1="1380.76" y1="120.011" x2="1019.22" y2="363.135" gradientUnits="userSpaceOnUse">
<stop stop-color="#FE873F"/>
<stop offset="1" stop-color="#F4F8FD"/>
</linearGradient>
</defs>
</svg>
